{
  "source": "C:\\Users\\Peter\\Desktop\\stuff\\MIUN\\quantitative_research\\video_compression\\videos\\BVI-HD\\BVI-HD_CDVL_videos\\ORIG\\CalmingWater_1920x1080_60fps.mp4",
  "output": "C:\\Users\\Peter\\Desktop\\stuff\\MIUN\\quantitative_research\\video_compression\\compressed_videos\\BVI-HD\\av1\\1\\CalmingWater_1920x1080_60fps_av1.mkv",
  "codec": "av1",
  "ok": "Input #0, mov,mp4,m4a,3gp,3g2,mj2, from 'C:\\Users\\Peter\\Desktop\\stuff\\MIUN\\quantitative_research\\video_compression\\videos\\BVI-HD\\BVI-HD_CDVL_videos\\ORIG\\CalmingWater_1920x1080_60fps.mp4':\n  Metadata:\n    major_brand     : isom\n    minor_version   : 512\n    compatible_brands: isomiso2avc1mp41\n    encoder         : Lavf54.28.101\n  Duration: 00:00:05.00, start: 0.000000, bitrate: 623787 kb/s\n  Stream #0:0[0x1](und): Video: h264 (High 4:4:4 Predictive) (avc1 / 0x31637661), yuv420p(progressive), 1920x1080, 623782 kb/s, 60 fps, 60 tbr, 60 tbn (default)\n    Metadata:\n      handler_name    : VideoHandler\n      vendor_id       : [0][0][0][0]\n[out#0/matroska @ 0000021cb3af90c0] Codec AVOption b:a (set bitrate (in bits/s)) has not been used for any stream. The most likely reason is either wrong type (e.g. a video option with no video streams) or that it is a private option of some decoder which was not actually used for any stream.\nStream mapping:\n  Stream #0:0 -> #0:0 (h264 (native) -> av1 (libsvtav1))\nPress [q] to stop, [?] for help\nSvt[info]: -------------------------------------------\nSvt[info]: SVT [version]:\tSVT-AV1 Encoder Lib v3.1.0-19-g6ecfe8ec\nSvt[info]: SVT [build]  :\tGCC 15.2.0\t 64 bit\nSvt[info]: LIB Build date: Aug 17 2025 11:37:13\nSvt[info]: -------------------------------------------\nSvt[info]: Level of Parallelism: 5\nSvt[info]: Number of PPCS 93\nSvt[info]: [asm level on system : up to avx2]\nSvt[info]: [asm level selected : up to avx2]\nSvt[info]: -------------------------------------------\nSvt[info]: SVT [config]: main profile\ttier (auto)\tlevel (auto)\nSvt[info]: SVT [config]: width / height / fps numerator / fps denominator \t\t: 1920 / 1080 / 60 / 1\nSvt[info]: SVT [config]: bit-depth / color format \t\t\t\t\t: 8 / YUV420\nSvt[info]: SVT [config]: preset / tune / pred struct \t\t\t\t\t: 4 / PSNR / random access\nSvt[info]: SVT [config]: gop size / mini-gop size / key-frame type \t\t\t: 321 / 16 / key frame\nSvt[info]: SVT [config]: BRC mode / target bitrate (kbps)\t\t\t\t: VBR / 1000 \nSvt[info]: SVT [config]: AQ mode / Variance Boost \t\t\t\t\t: 2 / 0\nSvt[info]: SVT [config]: sharpness / luminance-based QP bias \t\t\t\t: 0 / 0\nSvt[info]: SVT [config]: QP scale compress strength \t\t\t\t\t: 0\nSvt[info]: -------------------------------------------\nOutput #0, matroska, to 'C:\\Users\\Peter\\Desktop\\stuff\\MIUN\\quantitative_research\\video_compression\\compressed_videos\\BVI-HD\\av1\\1\\CalmingWater_1920x1080_60fps_av1.mkv':\n  Metadata:\n    major_brand     : isom\n    minor_version   : 512\n    compatible_brands: isomiso2avc1mp41\n    encoder         : Lavf62.3.100\n  Stream #0:0(und): Video: av1 (AV01 / 0x31305641), yuv420p(tv, progressive), 1920x1080, q=2-31, 1000 kb/s, 60 fps, 1k tbn (default)\n    Metadata:\n      encoder         : Lavc62.11.100 libsvtav1\n      handler_name    : VideoHandler\n      vendor_id       : [0][0][0][0]\n    Side data:\n      cpb: bitrate max/min/avg: 0/0/1000000 buffer size: 1000000 vbv_delay: N/A\nframe=    0 fps=0.0 q=0.0 size=       0KiB time=N/A bitrate=N/A speed=N/A elapsed=0:00:01.01    \nframe=    0 fps=0.0 q=0.0 size=       0KiB time=N/A bitrate=N/A speed=N/A elapsed=0:00:01.63    \nframe=    0 fps=0.0 q=0.0 size=       0KiB time=N/A bitrate=N/A speed=N/A elapsed=0:00:02.25    \nframe=    0 fps=0.0 q=0.0 size=       0KiB time=N/A bitrate=N/A speed=N/A elapsed=0:00:02.80    \nframe=    0 fps=0.0 q=0.0 size=       0KiB time=N/A bitrate=N/A speed=N/A elapsed=0:00:03.35    \nframe=    1 fps=0.3 q=59.0 size=       1KiB time=00:00:00.00 bitrate=N/A speed=   0x elapsed=0:00:03.89    \nframe=    1 fps=0.2 q=59.0 size=       1KiB time=00:00:00.00 bitrate=N/A speed=   0x elapsed=0:00:04.41    \nframe=    8 fps=1.6 q=63.0 size=       1KiB time=00:00:00.11 bitrate=  48.8kbits/s speed=0.0236x elapsed=0:00:04.94    \nframe=   12 fps=2.2 q=62.0 size=       1KiB time=00:00:00.16 bitrate=  34.2kbits/s speed=0.0305x elapsed=0:00:05.46    \nframe=   19 fps=3.2 q=63.0 size=       1KiB time=00:00:00.30 bitrate=  19.0kbits/s speed=0.0502x elapsed=0:00:05.98    \nframe=   26 fps=4.0 q=63.0 size=       1KiB time=00:00:00.40 bitrate=  14.2kbits/s speed=0.0617x elapsed=0:00:06.48    \nframe=   31 fps=4.4 q=63.0 size=       1KiB time=00:00:00.50 bitrate=  11.4kbits/s speed=0.0712x elapsed=0:00:07.02    \nframe=   38 fps=5.0 q=63.0 size=       1KiB time=00:00:00.61 bitrate=   9.2kbits/s speed=0.0818x elapsed=0:00:07.54    \nframe=   44 fps=5.4 q=63.0 size=       1KiB time=00:00:00.71 bitrate=   7.9kbits/s speed=0.0887x elapsed=0:00:08.08    \nframe=   51 fps=5.9 q=63.0 size=       1KiB time=00:00:00.83 bitrate=   6.8kbits/s speed=0.0965x elapsed=0:00:08.63    \nframe=   58 fps=6.3 q=63.0 size=       1KiB time=00:00:00.95 bitrate=   6.0kbits/s speed=0.104x elapsed=0:00:09.15    \nframe=   64 fps=6.6 q=63.0 size=       1KiB time=00:00:01.05 bitrate=   5.4kbits/s speed=0.108x elapsed=0:00:09.69    \nframe=   71 fps=7.0 q=62.0 size=       1KiB time=00:00:01.16 bitrate=   4.9kbits/s speed=0.114x elapsed=0:00:10.21    \nframe=   76 fps=7.1 q=63.0 size=       1KiB time=00:00:01.23 bitrate=   4.6kbits/s speed=0.115x elapsed=0:00:10.74    \nframe=   85 fps=7.5 q=63.0 size=       1KiB time=00:00:01.40 bitrate=   4.1kbits/s speed=0.124x elapsed=0:00:11.30    \nframe=   91 fps=7.7 q=63.0 size=       1KiB time=00:00:01.50 bitrate=   3.8kbits/s speed=0.127x elapsed=0:00:11.83    \nframe=   98 fps=7.9 q=63.0 size=       1KiB time=00:00:01.61 bitrate=   3.5kbits/s speed=0.13x elapsed=0:00:12.39    \nframe=  103 fps=8.0 q=62.0 size=       1KiB time=00:00:01.70 bitrate=   3.4kbits/s speed=0.132x elapsed=0:00:12.91    \nframe=  111 fps=8.3 q=63.0 size=       1KiB time=00:00:01.81 bitrate=   3.1kbits/s speed=0.135x elapsed=0:00:13.44    \nframe=  119 fps=8.5 q=62.0 size=       1KiB time=00:00:01.96 bitrate=   2.9kbits/s speed=0.14x elapsed=0:00:14.03    \nframe=  124 fps=8.5 q=63.0 size=       1KiB time=00:00:02.05 bitrate=   2.8kbits/s speed=0.141x elapsed=0:00:14.57    \nframe=  133 fps=8.8 q=63.0 size=       1KiB time=00:00:02.20 bitrate=   2.6kbits/s speed=0.146x elapsed=0:00:15.10    \nframe=  139 fps=8.9 q=63.0 size=       1KiB time=00:00:02.30 bitrate=   2.5kbits/s speed=0.147x elapsed=0:00:15.64    \nframe=  147 fps=9.1 q=63.0 size=       1KiB time=00:00:02.43 bitrate=   2.3kbits/s speed=0.15x elapsed=0:00:16.18    \nframe=  151 fps=9.0 q=62.0 size=       1KiB time=00:00:02.50 bitrate=   2.3kbits/s speed=0.15x elapsed=0:00:16.69    \nframe=  158 fps=9.2 q=63.0 size=       1KiB time=00:00:02.61 bitrate=   2.2kbits/s speed=0.152x elapsed=0:00:17.20    \nframe=  167 fps=9.4 q=62.0 size=       1KiB time=00:00:02.76 bitrate=   2.1kbits/s speed=0.156x elapsed=0:00:17.72    \nframe=  172 fps=9.4 q=63.0 size=       1KiB time=00:00:02.85 bitrate=   2.0kbits/s speed=0.156x elapsed=0:00:18.29    \nframe=  182 fps=9.7 q=63.0 size=       1KiB time=00:00:03.01 bitrate=   1.9kbits/s speed=0.16x elapsed=0:00:18.81    \nframe=  188 fps=9.7 q=63.0 size=       1KiB time=00:00:03.11 bitrate=   1.8kbits/s speed=0.161x elapsed=0:00:19.34    \nframe=  197 fps=9.9 q=63.0 size=       1KiB time=00:00:03.26 bitrate=   1.7kbits/s speed=0.164x elapsed=0:00:19.92    \nframe=  205 fps= 10 q=62.0 size=       1KiB time=00:00:03.40 bitrate=   1.7kbits/s speed=0.166x elapsed=0:00:20.45    \nframe=  213 fps= 10 q=63.0 size=       1KiB time=00:00:03.53 bitrate=   1.6kbits/s speed=0.168x elapsed=0:00:20.98    \nframe=  221 fps= 10 q=62.0 size=       1KiB time=00:00:03.63 bitrate=   1.6kbits/s speed=0.169x elapsed=0:00:21.50    \nframe=  227 fps= 10 q=63.0 size=       1KiB time=00:00:03.76 bitrate=   1.5kbits/s speed=0.171x elapsed=0:00:22.05    \nframe=  233 fps= 10 q=62.0 size=       1KiB time=00:00:03.86 bitrate=   1.5kbits/s speed=0.171x elapsed=0:00:22.58    \nframe=  239 fps= 10 q=63.0 size=       1KiB time=00:00:03.93 bitrate=   1.4kbits/s speed=0.17x elapsed=0:00:23.16    \nframe=  245 fps= 10 q=63.0 size=       1KiB time=00:00:04.06 bitrate=   1.4kbits/s speed=0.171x elapsed=0:00:23.75    \nframe=  251 fps= 10 q=63.0 size=       1KiB time=00:00:04.16 bitrate=   1.4kbits/s speed=0.171x elapsed=0:00:24.31    \nframe=  261 fps= 11 q=63.0 size=       1KiB time=00:00:04.33 bitrate=   1.3kbits/s speed=0.174x elapsed=0:00:24.83    \nframe=  265 fps= 10 q=61.0 size=       1KiB time=00:00:04.40 bitrate=   1.3kbits/s speed=0.173x elapsed=0:00:25.40    \nframe=  273 fps= 11 q=58.0 size=       1KiB time=00:00:04.53 bitrate=   1.3kbits/s speed=0.174x elapsed=0:00:25.98    \nframe=  281 fps= 11 q=62.0 size=       1KiB time=00:00:04.66 bitrate=   1.2kbits/s speed=0.176x elapsed=0:00:26.51    \nframe=  291 fps= 11 q=63.0 size=       1KiB time=00:00:04.76 bitrate=   1.2kbits/s speed=0.176x elapsed=0:00:27.07    \n[out#0/matroska @ 0000021cb3af90c0] video:692KiB audio:0KiB subtitle:0KiB other streams:0KiB global headers:0KiB muxing overhead: 0.299918%\nframe=  300 fps= 11 q=63.0 Lsize=     694KiB time=00:00:04.98 bitrate=1140.3kbits/s speed=0.183x elapsed=0:00:27.24    \n",
  "seconds": 27.705343008041382,
  "probe_out": {}
}